<svg xmlns="http://www.w3.org/2000/svg" xmlns:xlink="http://www.w3.org/1999/xlink" zoomAndPan="magnify" preserveAspectRatio="xMidYMid meet" version="1.0" viewBox="88.99 128.05 136.11 76.36"><defs><g/><clipPath id="1569dbe05a"><path d="M 88.988281 128.054688 L 148.710938 128.054688 L 148.710938 204.410156 L 88.988281 204.410156 Z M 88.988281 128.054688 " clip-rule="nonzero"/></clipPath><clipPath id="896658385c"><path d="M 126.882812 129.550781 L 163.976562 129.550781 L 163.976562 169.09375 L 126.882812 169.09375 Z M 126.882812 129.550781 " clip-rule="nonzero"/></clipPath></defs><g clip-path="url(#1569dbe05a)"><path fill="#013479" d="M 142.644531 158.03125 C 134.527344 140.261719 120.457031 128.5 108.296875 128.058594 C 118.355469 131.855469 128.617188 142.167969 135.074219 156.308594 C 139.769531 166.585938 141.613281 177.042969 140.832031 185.847656 C 138.4375 200.695312 120.207031 196.605469 116.351562 195.296875 C 116.289062 195.273438 116.226562 195.25 116.164062 195.230469 C 116.128906 195.214844 116.097656 195.207031 116.070312 195.195312 C 104.582031 190.972656 96.390625 179.976562 96.390625 167.074219 C 96.390625 153.285156 105.753906 141.675781 118.496094 138.191406 C 116.367188 136.117188 114.160156 134.273438 111.917969 132.675781 C 98.445312 138.335938 88.988281 151.601562 88.988281 167.074219 C 88.988281 187.695312 105.777344 204.410156 126.484375 204.410156 C 128.71875 204.410156 130.902344 204.210938 133.027344 203.835938 C 133.027344 203.839844 133.023438 203.839844 133.023438 203.839844 C 133.09375 203.828125 133.164062 203.816406 133.230469 203.800781 C 133.355469 203.78125 133.480469 203.757812 133.605469 203.734375 C 133.765625 203.703125 133.925781 203.671875 134.085938 203.636719 C 134.195312 203.613281 134.308594 203.589844 134.417969 203.566406 C 134.589844 203.53125 134.761719 203.492188 134.933594 203.453125 C 135.03125 203.429688 135.128906 203.40625 135.230469 203.382812 C 135.40625 203.339844 135.585938 203.296875 135.765625 203.25 C 135.855469 203.230469 135.945312 203.207031 136.035156 203.183594 C 136.222656 203.132812 136.410156 203.082031 136.59375 203.03125 C 136.675781 203.007812 136.757812 202.988281 136.84375 202.960938 C 137.03125 202.910156 137.21875 202.851562 137.40625 202.796875 C 137.484375 202.773438 137.5625 202.75 137.644531 202.722656 C 137.832031 202.664062 138.019531 202.605469 138.207031 202.542969 C 138.285156 202.515625 138.363281 202.492188 138.441406 202.464844 C 138.625 202.402344 138.8125 202.339844 138.996094 202.273438 C 139.078125 202.246094 139.15625 202.21875 139.234375 202.1875 C 139.414062 202.125 139.59375 202.058594 139.773438 201.992188 C 139.820312 201.972656 139.863281 201.957031 139.910156 201.941406 C 141.832031 201.203125 143.675781 200.320312 145.429688 199.296875 C 150.359375 189.230469 149.679688 173.4375 142.644531 158.03125 " fill-opacity="1" fill-rule="nonzero"/></g><path fill="#013479" d="M 122.289062 129.871094 C 129.832031 134.964844 137.425781 142.84375 143.796875 152.8125 C 151.65625 165.109375 156.082031 178.136719 156.8125 189.023438 C 158.859375 186.230469 160.523438 183.140625 161.730469 179.832031 C 159.554688 172.363281 156.011719 164.492188 151.164062 156.90625 C 142.703125 143.667969 132.082031 134.113281 122.289062 129.871094 " fill-opacity="1" fill-rule="nonzero"/><g clip-path="url(#896658385c)"><path fill="#013479" d="M 151.914062 150.738281 C 156.820312 156.675781 160.851562 162.917969 163.921875 169.085938 C 163.957031 168.421875 163.976562 167.75 163.976562 167.074219 C 163.976562 166.582031 163.960938 166.066406 163.941406 165.546875 C 163.941406 165.546875 163.941406 165.550781 163.945312 165.550781 C 163.941406 165.503906 163.941406 165.460938 163.9375 165.414062 C 163.933594 165.332031 163.929688 165.253906 163.929688 165.171875 C 163.925781 165.171875 163.925781 165.171875 163.925781 165.167969 C 162.933594 145.59375 146.800781 129.992188 126.953125 129.75 C 135.351562 134.136719 144.121094 141.308594 151.914062 150.738281 " fill-opacity="1" fill-rule="nonzero"/></g><path fill="#ff9ca2" d="M 114.640625 171.765625 L 137.164062 171.765625 C 136.597656 169.007812 135.792969 166.183594 134.746094 163.339844 L 110.386719 163.339844 C 110.96875 164.34375 111.539062 165.375 112.089844 166.433594 C 113.027344 168.21875 113.875 170 114.640625 171.765625 Z M 138.144531 182.492188 C 138.238281 179.816406 138.042969 176.984375 137.578125 174.066406 L 115.59375 174.066406 C 116.742188 176.96875 117.65625 179.800781 118.324219 182.492188 Z M 109.003906 161.039062 L 133.851562 161.039062 C 132.691406 158.226562 131.300781 155.402344 129.675781 152.613281 L 102.851562 152.613281 C 104.96875 155.078125 107.046875 157.910156 109.003906 161.039062 " fill-opacity="1" fill-rule="nonzero"/><g fill="#013479" fill-opacity="1"><g transform="translate(149.594012, 195.315794)"><g><path d="M 17.574219 -6.972656 L 17.574219 -21.078125 L 15.40625 -21.078125 L 15.40625 -6.664062 C 15.40625 -5.796875 15.25 -5.082031 14.941406 -4.496094 C 14.042969 -2.757812 12.304688 -1.890625 9.734375 -1.890625 C 8.058594 -1.890625 6.726562 -2.261719 5.734375 -3.007812 C 4.585938 -3.84375 4.03125 -5.050781 4.03125 -6.664062 L 4.03125 -21.078125 L 1.859375 -21.078125 L 1.859375 -6.972656 C 1.859375 -4.679688 2.605469 -2.882812 4.089844 -1.582031 C 5.488281 -0.339844 7.378906 0.277344 9.734375 0.277344 C 12.058594 0.277344 13.917969 -0.339844 15.34375 -1.582031 C 16.832031 -2.882812 17.574219 -4.679688 17.574219 -6.972656 Z M 17.574219 -6.972656 "/></g></g></g><g fill="#013479" fill-opacity="1"><g transform="translate(169.028597, 195.315794)"><g><path d="M 14.847656 0 L 14.847656 -2.015625 L 4.496094 -2.015625 L 4.496094 -9.515625 L 14.539062 -9.515625 L 14.539062 -11.5625 L 4.496094 -11.5625 L 4.496094 -19.0625 L 14.847656 -19.0625 L 14.847656 -21.078125 L 2.324219 -21.078125 L 2.324219 0 Z M 14.847656 0 "/></g></g></g><g fill="#013479" fill-opacity="1"><g transform="translate(186.200455, 195.315794)"><g><path d="M 4.496094 0 L 4.496094 -21.078125 L 2.324219 -21.078125 L 2.324219 0 Z M 4.496094 0 "/></g></g></g><g fill="#013479" fill-opacity="1"><g transform="translate(193.019612, 195.315794)"><g><path d="M 0.621094 -19.125 L 5.734375 -19.125 L 5.734375 -0.0625 L 7.90625 -0.0625 L 7.90625 -19.125 L 13.019531 -19.125 L 13.019531 -21.140625 L 0.621094 -21.140625 Z M 0.621094 -19.125 "/></g></g></g><g fill="#013479" fill-opacity="1"><g transform="translate(206.657912, 195.315794)"><g><path d="M 10.476562 -9.917969 L 18.445312 -21.078125 L 15.683594 -21.078125 L 9.390625 -12.058594 L 3.101562 -21.078125 L 0.308594 -21.078125 L 8.308594 -9.886719 L 8.308594 0 L 10.476562 0 Z M 10.476562 -9.917969 "/></g></g></g></svg>